<mxfile host="app.diagrams.net" modified="2023-11-30T08:27:32.763Z" agent="Mozilla/5.0 (Windows NT 10.0; Win64; x64) AppleWebKit/537.36 (KHTML, like Gecko) Chrome/119.0.0.0 Safari/537.36" etag="2ZNSiZN6hQ1ZgmvLnjUf" version="22.1.5" type="github">
  <diagram name="Page-1" id="UQfQh1v6JwxMXf1f5g66">
    <mxGraphModel dx="1592" dy="1566" grid="1" gridSize="10" guides="1" tooltips="1" connect="1" arrows="1" fold="1" page="1" pageScale="1" pageWidth="827" pageHeight="1169" background="#E6E6E6" math="0" shadow="0">
      <root>
        <mxCell id="0" />
        <mxCell id="1" parent="0" />
        <mxCell id="a6ZQAV9WoeV4s8uq9TPd-3" value="Mindmap" style="swimlane;startSize=20;horizontal=1;containerType=tree;fontColor=#4D4D4D;" parent="1" vertex="1">
          <mxGeometry x="-110" y="-50" width="780" height="350" as="geometry" />
        </mxCell>
        <mxCell id="a6ZQAV9WoeV4s8uq9TPd-24" style="edgeStyle=entityRelationEdgeStyle;rounded=0;orthogonalLoop=1;jettySize=auto;html=1;startArrow=none;endArrow=none;segment=10;curved=1;sourcePerimeterSpacing=0;targetPerimeterSpacing=0;exitX=0.5;exitY=0;exitDx=0;exitDy=0;entryX=0.5;entryY=1;entryDx=0;entryDy=0;" parent="a6ZQAV9WoeV4s8uq9TPd-3" source="a6ZQAV9WoeV4s8uq9TPd-16" target="a6ZQAV9WoeV4s8uq9TPd-8" edge="1">
          <mxGeometry relative="1" as="geometry" />
        </mxCell>
        <mxCell id="a6ZQAV9WoeV4s8uq9TPd-16" value="Referensi Data Pengguna" style="whiteSpace=wrap;html=1;rounded=1;arcSize=50;align=center;verticalAlign=middle;strokeWidth=1;autosize=1;spacing=4;treeFolding=1;treeMoving=1;newEdgeStyle={&quot;edgeStyle&quot;:&quot;entityRelationEdgeStyle&quot;,&quot;startArrow&quot;:&quot;none&quot;,&quot;endArrow&quot;:&quot;none&quot;,&quot;segment&quot;:10,&quot;curved&quot;:1,&quot;sourcePerimeterSpacing&quot;:0,&quot;targetPerimeterSpacing&quot;:0};" parent="a6ZQAV9WoeV4s8uq9TPd-3" vertex="1">
          <mxGeometry x="490" y="180" width="180" height="30" as="geometry" />
        </mxCell>
        <mxCell id="a6ZQAV9WoeV4s8uq9TPd-14" value="Musik Favorit" style="whiteSpace=wrap;html=1;rounded=1;arcSize=50;align=center;verticalAlign=middle;strokeWidth=1;autosize=1;spacing=4;treeFolding=1;treeMoving=1;newEdgeStyle={&quot;edgeStyle&quot;:&quot;entityRelationEdgeStyle&quot;,&quot;startArrow&quot;:&quot;none&quot;,&quot;endArrow&quot;:&quot;none&quot;,&quot;segment&quot;:10,&quot;curved&quot;:1,&quot;sourcePerimeterSpacing&quot;:0,&quot;targetPerimeterSpacing&quot;:0};" parent="a6ZQAV9WoeV4s8uq9TPd-3" vertex="1" collapsed="1">
          <mxGeometry x="280" y="110" width="120" height="30" as="geometry" />
        </mxCell>
        <mxCell id="a6ZQAV9WoeV4s8uq9TPd-13" value="" style="edgeStyle=entityRelationEdgeStyle;startArrow=none;endArrow=none;segment=10;curved=1;sourcePerimeterSpacing=0;targetPerimeterSpacing=0;rounded=0;" parent="a6ZQAV9WoeV4s8uq9TPd-3" source="a6ZQAV9WoeV4s8uq9TPd-16" target="a6ZQAV9WoeV4s8uq9TPd-14" edge="1">
          <mxGeometry relative="1" as="geometry">
            <mxPoint x="290" as="sourcePoint" />
          </mxGeometry>
        </mxCell>
        <mxCell id="a6ZQAV9WoeV4s8uq9TPd-11" value="Film Favorit" style="whiteSpace=wrap;html=1;rounded=1;arcSize=50;align=center;verticalAlign=middle;strokeWidth=1;autosize=1;spacing=4;treeFolding=1;treeMoving=1;newEdgeStyle={&quot;edgeStyle&quot;:&quot;entityRelationEdgeStyle&quot;,&quot;startArrow&quot;:&quot;none&quot;,&quot;endArrow&quot;:&quot;none&quot;,&quot;segment&quot;:10,&quot;curved&quot;:1,&quot;sourcePerimeterSpacing&quot;:0,&quot;targetPerimeterSpacing&quot;:0};" parent="a6ZQAV9WoeV4s8uq9TPd-3" vertex="1">
          <mxGeometry x="290" y="160" width="110" height="30" as="geometry" />
        </mxCell>
        <mxCell id="a6ZQAV9WoeV4s8uq9TPd-15" value="" style="edgeStyle=entityRelationEdgeStyle;startArrow=none;endArrow=none;segment=10;curved=1;sourcePerimeterSpacing=0;targetPerimeterSpacing=0;rounded=0;" parent="a6ZQAV9WoeV4s8uq9TPd-3" source="a6ZQAV9WoeV4s8uq9TPd-16" target="a6ZQAV9WoeV4s8uq9TPd-11" edge="1">
          <mxGeometry relative="1" as="geometry">
            <mxPoint x="550" y="70" as="sourcePoint" />
          </mxGeometry>
        </mxCell>
        <mxCell id="a6ZQAV9WoeV4s8uq9TPd-19" value="Warna Favorit" style="whiteSpace=wrap;html=1;rounded=1;arcSize=50;align=center;verticalAlign=middle;strokeWidth=1;autosize=1;spacing=4;treeFolding=1;treeMoving=1;newEdgeStyle={&quot;edgeStyle&quot;:&quot;entityRelationEdgeStyle&quot;,&quot;startArrow&quot;:&quot;none&quot;,&quot;endArrow&quot;:&quot;none&quot;,&quot;segment&quot;:10,&quot;curved&quot;:1,&quot;sourcePerimeterSpacing&quot;:0,&quot;targetPerimeterSpacing&quot;:0};" parent="a6ZQAV9WoeV4s8uq9TPd-3" vertex="1">
          <mxGeometry x="290" y="210" width="120" height="30" as="geometry" />
        </mxCell>
        <mxCell id="a6ZQAV9WoeV4s8uq9TPd-18" value="" style="edgeStyle=entityRelationEdgeStyle;startArrow=none;endArrow=none;segment=10;curved=1;sourcePerimeterSpacing=0;targetPerimeterSpacing=0;rounded=0;" parent="a6ZQAV9WoeV4s8uq9TPd-3" source="a6ZQAV9WoeV4s8uq9TPd-16" target="a6ZQAV9WoeV4s8uq9TPd-19" edge="1">
          <mxGeometry relative="1" as="geometry">
            <mxPoint x="590" y="110" as="sourcePoint" />
          </mxGeometry>
        </mxCell>
        <mxCell id="a6ZQAV9WoeV4s8uq9TPd-25" value="" style="edgeStyle=entityRelationEdgeStyle;rounded=0;orthogonalLoop=1;jettySize=auto;html=1;startArrow=none;endArrow=none;segment=10;curved=1;sourcePerimeterSpacing=0;targetPerimeterSpacing=0;" parent="a6ZQAV9WoeV4s8uq9TPd-3" source="a6ZQAV9WoeV4s8uq9TPd-16" target="a6ZQAV9WoeV4s8uq9TPd-26" edge="1">
          <mxGeometry relative="1" as="geometry" />
        </mxCell>
        <mxCell id="a6ZQAV9WoeV4s8uq9TPd-26" value="Tema Yang Diinginkan" style="whiteSpace=wrap;html=1;rounded=1;arcSize=50;align=center;verticalAlign=middle;strokeWidth=1;autosize=1;spacing=4;treeFolding=1;treeMoving=1;newEdgeStyle={&quot;edgeStyle&quot;:&quot;entityRelationEdgeStyle&quot;,&quot;startArrow&quot;:&quot;none&quot;,&quot;endArrow&quot;:&quot;none&quot;,&quot;segment&quot;:10,&quot;curved&quot;:1,&quot;sourcePerimeterSpacing&quot;:0,&quot;targetPerimeterSpacing&quot;:0};" parent="a6ZQAV9WoeV4s8uq9TPd-3" vertex="1">
          <mxGeometry x="270" y="260" width="160" height="30" as="geometry" />
        </mxCell>
        <mxCell id="a6ZQAV9WoeV4s8uq9TPd-21" value="AI Based Costumization" style="whiteSpace=wrap;html=1;rounded=1;arcSize=50;align=center;verticalAlign=middle;strokeWidth=1;autosize=1;spacing=4;treeFolding=1;treeMoving=1;newEdgeStyle={&quot;edgeStyle&quot;:&quot;entityRelationEdgeStyle&quot;,&quot;startArrow&quot;:&quot;none&quot;,&quot;endArrow&quot;:&quot;none&quot;,&quot;segment&quot;:10,&quot;curved&quot;:1,&quot;sourcePerimeterSpacing&quot;:0,&quot;targetPerimeterSpacing&quot;:0};" parent="a6ZQAV9WoeV4s8uq9TPd-3" vertex="1" collapsed="1">
          <mxGeometry x="60" y="160" width="170" height="30" as="geometry" />
        </mxCell>
        <mxCell id="a6ZQAV9WoeV4s8uq9TPd-20" value="" style="edgeStyle=entityRelationEdgeStyle;startArrow=none;endArrow=none;segment=10;curved=1;sourcePerimeterSpacing=0;targetPerimeterSpacing=0;rounded=0;" parent="a6ZQAV9WoeV4s8uq9TPd-3" source="a6ZQAV9WoeV4s8uq9TPd-14" target="a6ZQAV9WoeV4s8uq9TPd-21" edge="1">
          <mxGeometry relative="1" as="geometry">
            <mxPoint x="380" y="145" as="sourcePoint" />
          </mxGeometry>
        </mxCell>
        <mxCell id="a6ZQAV9WoeV4s8uq9TPd-22" style="edgeStyle=entityRelationEdgeStyle;rounded=0;orthogonalLoop=1;jettySize=auto;html=1;startArrow=none;endArrow=none;segment=10;curved=1;sourcePerimeterSpacing=0;targetPerimeterSpacing=0;" parent="a6ZQAV9WoeV4s8uq9TPd-3" source="a6ZQAV9WoeV4s8uq9TPd-11" target="a6ZQAV9WoeV4s8uq9TPd-21" edge="1">
          <mxGeometry relative="1" as="geometry" />
        </mxCell>
        <mxCell id="a6ZQAV9WoeV4s8uq9TPd-23" style="edgeStyle=entityRelationEdgeStyle;rounded=0;orthogonalLoop=1;jettySize=auto;html=1;startArrow=none;endArrow=none;segment=10;curved=1;sourcePerimeterSpacing=0;targetPerimeterSpacing=0;" parent="a6ZQAV9WoeV4s8uq9TPd-3" source="a6ZQAV9WoeV4s8uq9TPd-19" target="a6ZQAV9WoeV4s8uq9TPd-21" edge="1">
          <mxGeometry relative="1" as="geometry" />
        </mxCell>
        <mxCell id="4E_IpwTKP6DfUhpd0Ovg-1" style="edgeStyle=entityRelationEdgeStyle;rounded=0;orthogonalLoop=1;jettySize=auto;html=1;startArrow=none;endArrow=none;segment=10;curved=1;sourcePerimeterSpacing=0;targetPerimeterSpacing=0;exitX=0;exitY=0.5;exitDx=0;exitDy=0;entryX=1;entryY=0.75;entryDx=0;entryDy=0;" edge="1" parent="a6ZQAV9WoeV4s8uq9TPd-3" source="a6ZQAV9WoeV4s8uq9TPd-26" target="a6ZQAV9WoeV4s8uq9TPd-21">
          <mxGeometry relative="1" as="geometry" />
        </mxCell>
        <mxCell id="a6ZQAV9WoeV4s8uq9TPd-8" value="LayangRabi AI" style="ellipse;whiteSpace=wrap;html=1;align=center;treeFolding=1;treeMoving=1;newEdgeStyle={&quot;edgeStyle&quot;:&quot;entityRelationEdgeStyle&quot;,&quot;startArrow&quot;:&quot;none&quot;,&quot;endArrow&quot;:&quot;none&quot;,&quot;segment&quot;:10,&quot;curved&quot;:1,&quot;sourcePerimeterSpacing&quot;:0,&quot;targetPerimeterSpacing&quot;:0};" parent="a6ZQAV9WoeV4s8uq9TPd-3" vertex="1">
          <mxGeometry x="530" y="90" width="100" height="40" as="geometry" />
        </mxCell>
      </root>
    </mxGraphModel>
  </diagram>
</mxfile>
